
<svg display="none" xmlns="http://www.w3.org/2000/svg">

<symbol id="phoun" viewBox="0 0 16 12">
<path d="M8.5 0h-7C.673 0 0 .673 0 1.5v13c0 .827.673 1.5 1.5 
1.5h7c.827 0 1.5-.673 1.5-1.5v-13C10 .673 9.327 0 8.5 0Zm-7 1h7a.
5.5 0 0 1 
 .5.5V12H1V1.5a.5.5 0 0 1 .5-.5Zm7 14h-7a.5.5 0 0 1-.5-.5V13h8v1.
 5a.5.5 0 0 1-.5.5Z"/>
 </symbol>

<symbol id="envelope" viewBox="0 0 10 16">
<path d="M14.5 0h-13C.673 0 0 .673 0 1.5v9c0 .827.673 1.5 1.5 1.5h13c.827 0 
1.5-.673 1.5-1.5v-9c0-.827-.673-1.5-1.5-1.5Zm0 1c.068 0 .133.014.192.039L8 
6.839l-6.692-5.8A.498.498 0 0 1 1.5 1h13Zm0 10h-13a.5.5 0 0 1-.5-.5V2.095l6.672 
5.783a.5.5 0 0 0 .656 0L15 2.095V10.5a.5.5 0 0 1-.5.5Z" />
</symbol>

<symbol id="antenna" viewBox="0 0 70 70">
<path d="m67.316 48.339-18.47-18.605 2.05-10.097a4.655 4.655 
0 0 0 1.66.319h.014a4.723 4.723 0 1 0-4.394-3.14l-10.85 1.325L19.628.35a1.166 
1.166 0 0 0-.824-.35c-.306.002-.6.124-.817.34L14.68 3.63a1.167 1.167 0 0 0 0 
1.65l1.78 1.805a32.686 32.686 0 0 0 5.511 38.638c.094.09.202.161.32.213a6.77 
6.77 0 0 0-.114 1.197v13.534h-14A5.84 5.84 0 0 0 2.342 66.5v2.333c0 .645.523 
1.167 1.167 1.167h53.667c.644 0 1.166-.522 1.166-1.167V66.5a5.84 5.84 0 0 
0-5.833-5.833h-14v-5.998c2.193.46 4.428.694 6.669.7a32.483 32.483 0 0 0 
15.4-3.901l1.79 1.8c.216.221.513.347.823.35.306-.002.6-.124.817-.34l3.308-3.29a1.167 
1.167 0 0 0 0-1.65ZM50.925 13.635a2.333 2.333 0 1 1 1.645 3.987h-.008a2.333 2.333 0 
0 1-1.633-3.987h-.004ZM48.178 21.3l-1.309 6.444-2.571-2.587 3.88-3.857Zm-1.325-1.973-4.2 
4.176-3.25-3.267 7.45-.909ZM52.509 63a3.5 3.5 0 0 1 3.5 3.5v1.167H4.676V66.5a3.5 3.5 0 0 
1 3.5-3.5h44.333Zm-16.333-4.667v2.334H24.509v-2.334h11.667ZM24.509 56v-8.867c0-2.83 2.617-5.133 
5.833-5.133 3.217 0 5.834 2.303 5.834 5.133V56H24.509Zm14-3.71v-5.157c0-4.117-3.663-7.466-8.167-7.466a8.312 
8.312 0 0 0-7.177 3.907A30.34 30.34 0 0 1 18.18 8.82l40.692 40.925a30.233 30.233 0 0 1-20.363 
2.544Zm24.695-1.496-1.644-1.653L18.792 6.116l-1.65-1.655 1.65-1.645L36.15 20.272c.008 
0 .013.015.021.021l28.688 28.856-1.655 1.645Z" fill="#212121"/><path d="M30.353 
44.333h-.01a3.5 3.5 0 0 0-.011 7h.01a3.5 3.5 0 1 0 .01-7Zm.816 4.328a1.167 1.167 0 
1 1-.827-1.994 1.166 1.166 0 0 1 .817 1.993h.01Z" fill="#2196F3"/>
</symbol>

<symbol id="Clock">
<path d="M68.461 33.471C68.458 14.982 53.466-.004 34.975 0 16.485.004 1.5 14.996 1.504 
33.486A33.479 33.479 0 0 0 24.799 65.37c.133.042.27.063.41.063.263 0 .521-.071.748-.205.296-.175.516-.453.62-.78l8.454-26.797a4.184 
4.184 0 1 0-1.837-7.95L22.025 18.53a1.395 1.395 0 0 0-1.972 1.973l11.163 11.176a4.104 4.104 0 
0 0 1.173 5.051l-8.055 25.535C8.414 56.4.262 38.74 6.126 22.82 11.991 6.9 29.65-1.252 
45.571 4.613c15.92 5.864 24.072 23.524 18.207 39.444A30.72 30.72 0 0 1 47.455 
61.5l-.87-4.1a1.394 1.394 0 0 0-2.294-.752l-8.393 7.494a1.394 1.394 0 0 0 .505 
2.372l10.716 3.42a1.394 1.394 0 0 0 1.791-1.619l-.855-4.022a33.37 33.37 0 0 0 
20.406-30.82Zm-33.478-1.394a1.395 1.395 0 1 1 0 2.79 1.395 1.395 0 0 1 0-2.79Zm4.594 
32.515 4.778-4.262 1.319 6.213-6.097-1.951Z" fill="#212121"/><path d="M33.588 6.967v2.79a1.395 
1.395 0 1 0 2.79 0v-2.79a1.395 1.395 0 0 0-2.79 0ZM8.479 32.077a1.395 1.395 0 0 0 0 2.79h2.79a1.395 
1.395 0 1 0 0-2.79h-2.79ZM61.487 34.867a1.395 1.395 0 1 0 0-2.79h-2.79a1.395 1.395 0 0 0 0 2.79h2.79Z" 
fill="#2196F3"/>

</symbol>

<symbol>

</symbol>

<symbol>

</symbol>

<symbol>

</symbol>

<symbol>

</symbol>

<symbol>

</symbol>

<symbol>

</symbol>

<symbol>

</symbol>

<symbol>

</symbol>

<symbol>

</symbol>

<symbol>

</symbol>

<symbol>

</symbol>

<symbol>

</symbol>

<symbol>

</symbol>

<symbol>

</symbol>

<symbol>

</symbol>























 </svg>
